<svg width="41" height="40" viewBox="0 0 41 40" fill="none" xmlns="http://www.w3.org/2000/svg">
<path opacity="0.5" d="M40.9419 0V7.59812C38.9325 8.72841 37.3836 10.1518 36.2951 11.8681C35.2486 13.5426 34.4532 15.3218 33.9089 17.2057C33.3647 19.0476 33.0926 21.1198 33.0926 23.4223H40.9419V40H24.3642V29.7017C24.3642 23.506 24.9503 18.7964 26.1224 15.573C27.2946 12.3077 29.0947 9.3145 31.5228 6.59341C33.9508 3.87232 37.0905 1.67452 40.9419 0ZM16.5777 0V7.59812C14.5683 8.72841 13.0194 10.1518 11.9309 11.8681C10.8844 13.5426 10.089 15.3218 9.54474 17.2057C9.00052 19.0476 8.72841 21.1198 8.72841 23.4223H16.5777V40H0V29.7017C0 23.506 0.586081 18.7964 1.75824 15.573C2.9304 12.3077 4.73051 9.3145 7.15856 6.59341C9.62847 3.87232 12.7682 1.67452 16.5777 0Z" fill="white"/>
</svg>
