<svg width="12" height="13" viewBox="0 0 12 13" fill="none" xmlns="http://www.w3.org/2000/svg">
<path d="M8.9165 1.74998H11.2498C11.4045 1.74998 11.5529 1.81144 11.6623 1.92083C11.7717 2.03023 11.8332 2.1786 11.8332 2.33331V11.6666C11.8332 11.8214 11.7717 11.9697 11.6623 12.0791C11.5529 12.1885 11.4045 12.25 11.2498 12.25H0.749837C0.595128 12.25 0.446754 12.1885 0.337358 12.0791C0.227962 11.9697 0.166504 11.8214 0.166504 11.6666V2.33331C0.166504 2.1786 0.227962 2.03023 0.337358 1.92083C0.446754 1.81144 0.595128 1.74998 0.749837 1.74998H3.08317V0.583313H4.24984V1.74998H7.74984V0.583313H8.9165V1.74998ZM7.74984 2.91665H4.24984V4.08331H3.08317V2.91665H1.33317V5.24998H10.6665V2.91665H8.9165V4.08331H7.74984V2.91665ZM10.6665 6.41665H1.33317V11.0833H10.6665V6.41665Z" fill="black"/>
</svg>
