<svg width="17" height="18" viewBox="0 0 17 18" fill="none" xmlns="http://www.w3.org/2000/svg">
<path d="M12.4047 6.17856V4.2048C12.6664 4.08253 12.8879 3.88838 13.0435 3.64499C13.1991 3.4016 13.2822 3.119 13.2833 2.83014V2.78382C13.2822 2.38078 13.1216 1.99457 12.8366 1.70958C12.5516 1.42459 12.1654 1.264 11.7624 1.2629H11.716C11.3126 1.26345 10.9258 1.42378 10.6403 1.70881C10.3548 1.99385 10.1938 2.38037 10.1925 2.78382V2.83014C10.1941 3.1171 10.2765 3.3978 10.4305 3.63996C10.5844 3.88213 10.8036 4.07593 11.0628 4.19907L11.0711 4.20428V6.18324C10.316 6.29787 9.60496 6.61135 9.01098 7.09152L9.01931 7.08632L3.58627 2.85461C4.0771 1.0219 1.6859 -0.151837 0.536622 1.35815C-0.615778 2.86554 1.14405 4.86064 2.78417 3.90655L2.77584 3.91175L8.11623 8.06747C7.64421 8.77643 7.3933 9.60957 7.39533 10.4613C7.39533 11.3909 7.69098 12.256 8.19222 12.9634L8.1839 12.9498L6.55731 14.5738C6.42719 14.5332 6.29186 14.5113 6.156 14.5087H6.1534C4.89846 14.5087 4.26657 16.0297 5.15559 16.9187C6.04462 17.8051 7.56553 17.1763 7.56553 15.9209C7.56266 15.7799 7.53898 15.6401 7.49527 15.506L7.49787 15.517L9.10571 13.9091C9.63023 14.3092 10.239 14.5846 10.8858 14.7143C11.5327 14.844 12.2006 14.8246 12.8388 14.6576C13.4762 14.4897 14.067 14.1787 14.5663 13.7482C15.0656 13.3178 15.4603 12.7793 15.7203 12.1735C15.9803 11.5677 16.0988 10.9107 16.0669 10.2522C16.035 9.59381 15.8534 8.9513 15.536 8.37353C15.2187 7.79583 14.7736 7.29823 14.2347 6.91865C13.6958 6.53907 13.0774 6.28754 12.4265 6.18324L12.3995 6.17804L12.4047 6.17856ZM11.7348 12.6875C9.75322 12.6823 8.76634 10.2853 10.1707 8.88675C11.5724 7.48763 13.9662 8.48023 13.9662 10.4618V10.4644C13.9662 10.7566 13.9086 11.0459 13.7967 11.3157C13.6848 11.5856 13.5209 11.8308 13.3141 12.0373C13.1074 12.2437 12.8621 12.4074 12.592 12.519C12.322 12.6306 12.0327 12.6878 11.7405 12.6875H11.7348Z" fill="black"/>
</svg>
