<svg width="14" height="14" viewBox="0 0 14 14" fill="none" xmlns="http://www.w3.org/2000/svg">
<path d="M7.00004 0.333344C8.81137 0.333344 9.03737 0.34001 9.74804 0.373343C10.458 0.406677 10.9414 0.51801 11.3667 0.683344C11.8067 0.852677 12.1774 1.08201 12.548 1.45201C12.887 1.78527 13.1493 2.1884 13.3167 2.63334C13.4814 3.05801 13.5934 3.54201 13.6267 4.25201C13.658 4.96268 13.6667 5.18868 13.6667 7.00001C13.6667 8.81134 13.66 9.03734 13.6267 9.74801C13.5934 10.458 13.4814 10.9413 13.3167 11.3667C13.1498 11.8119 12.8875 12.2151 12.548 12.548C12.2147 12.8869 11.8116 13.1492 11.3667 13.3167C10.942 13.4813 10.458 13.5933 9.74804 13.6267C9.03737 13.658 8.81137 13.6667 7.00004 13.6667C5.18871 13.6667 4.96271 13.66 4.25204 13.6267C3.54204 13.5933 3.05871 13.4813 2.63337 13.3167C2.18826 13.1497 1.78506 12.8873 1.45204 12.548C1.11298 12.2148 0.850662 11.8117 0.683374 11.3667C0.518041 10.942 0.406707 10.458 0.373374 9.74801C0.342041 9.03734 0.333374 8.81134 0.333374 7.00001C0.333374 5.18868 0.340041 4.96268 0.373374 4.25201C0.406707 3.54134 0.518041 3.05868 0.683374 2.63334C0.850198 2.18813 1.11258 1.78489 1.45204 1.45201C1.78515 1.11283 2.18833 0.850496 2.63337 0.683344C3.05871 0.51801 3.54137 0.406677 4.25204 0.373343C4.96271 0.34201 5.18871 0.333344 7.00004 0.333344ZM7.00004 3.66668C6.11599 3.66668 5.26814 4.01787 4.64302 4.64299C4.0179 5.26811 3.66671 6.11596 3.66671 7.00001C3.66671 7.88407 4.0179 8.73191 4.64302 9.35703C5.26814 9.98215 6.11599 10.3333 7.00004 10.3333C7.8841 10.3333 8.73194 9.98215 9.35706 9.35703C9.98218 8.73191 10.3334 7.88407 10.3334 7.00001C10.3334 6.11596 9.98218 5.26811 9.35706 4.64299C8.73194 4.01787 7.8841 3.66668 7.00004 3.66668ZM11.3334 3.50001C11.3334 3.279 11.2456 3.06703 11.0893 2.91075C10.933 2.75447 10.7211 2.66668 10.5 2.66668C10.279 2.66668 10.0671 2.75447 9.91078 2.91075C9.7545 3.06703 9.66671 3.279 9.66671 3.50001C9.66671 3.72102 9.7545 3.93299 9.91078 4.08927C10.0671 4.24555 10.279 4.33334 10.5 4.33334C10.7211 4.33334 10.933 4.24555 11.0893 4.08927C11.2456 3.93299 11.3334 3.72102 11.3334 3.50001ZM7.00004 5.00001C7.53047 5.00001 8.03918 5.21072 8.41426 5.5858C8.78933 5.96087 9.00004 6.46958 9.00004 7.00001C9.00004 7.53044 8.78933 8.03915 8.41426 8.41422C8.03918 8.7893 7.53047 9.00001 7.00004 9.00001C6.46961 9.00001 5.9609 8.7893 5.58583 8.41422C5.21075 8.03915 5.00004 7.53044 5.00004 7.00001C5.00004 6.46958 5.21075 5.96087 5.58583 5.5858C5.9609 5.21072 6.46961 5.00001 7.00004 5.00001Z" fill="black"/>
</svg>
