<svg width="15" height="13" viewBox="0 0 15 13" fill="none" xmlns="http://www.w3.org/2000/svg">
<path d="M11.3333 5.66671L14.2666 13H12.83L12.0293 11H9.30265L8.50331 13H7.06731L9.99998 5.66671H11.3333ZM5.66665 0.333374V1.66671H9.66665V3.00004H8.35465C7.84039 4.54809 7.01963 5.97672 5.94131 7.20071C6.42218 7.62978 6.94376 8.01092 7.49865 8.33871L6.99798 9.59071C6.28166 9.18443 5.61171 8.70137 4.99998 8.15004C3.80904 9.22787 2.39867 10.0348 0.86598 10.5154L0.508646 9.22937C1.82187 8.81064 3.03199 8.1196 4.05998 7.20137C3.29911 6.34 2.66536 5.37422 2.17798 4.33337H3.67131C4.04288 5.01928 4.48842 5.66244 4.99998 6.25137C5.83338 5.29077 6.49018 4.19024 6.93998 3.00071L0.333313 3.00004V1.66671H4.33331V0.333374H5.66665ZM10.6666 7.59004L9.83531 9.66671H11.4966L10.6666 7.59004Z" fill="black"/>
</svg>
