<svg width="14" height="12" viewBox="0 0 14 12" fill="none" xmlns="http://www.w3.org/2000/svg">
<path d="M3.62663 1.33333C3.62645 1.68695 3.48581 2.02602 3.23563 2.27594C2.98546 2.52587 2.64625 2.66617 2.29263 2.666C1.93901 2.66582 1.59994 2.52517 1.35001 2.275C1.10009 2.02483 0.959784 1.68562 0.959961 1.332C0.960138 0.978373 1.10078 0.639305 1.35096 0.389382C1.60113 0.139458 1.94034 -0.000848031 2.29396 -0.00067122C2.64758 -0.000494409 2.98665 0.140151 3.23657 0.390324C3.4865 0.640498 3.6268 0.979707 3.62663 1.33333ZM3.66663 3.65333H0.999961V12H3.66663V3.65333ZM7.87996 3.65333H5.22663V12H7.85329V7.62C7.85329 5.18 11.0333 4.95333 11.0333 7.62V12H13.6666V6.71333C13.6666 2.6 8.95996 2.75333 7.85329 4.77333L7.87996 3.65333Z" fill="black"/>
</svg>
